<?xml version="1.0" encoding="UTF-8"?>
<!DOCTYPE svg PUBLIC "-//W3C//DTD SVG 1.1//EN"
  "http://www.w3.org/Graphics/SVG/1.1/DTD/svg11.dtd">
<svg xmlns:xlink="http://www.w3.org/1999/xlink" width="1224pt" viewBox="0,0,1224,792" xmlns="http://www.w3.org/2000/svg" version="1.1" height="792pt">
<defs>
<linearGradient gradientTransform="matrix(1 0 0 1 0 0)" gradientUnits="userSpaceOnUse" id="LinearGradient" x1="574.932" y1="-15.741" y2="831.409" x2="570.472">
<stop stop-color="#3e4656" offset="0"/>
<stop stop-color="#ced2bf" offset="0.556391"/>
<stop stop-color="#a9a5a3" offset="0.819549"/>
<stop stop-color="#757d82" offset="1"/>
</linearGradient>
<radialGradient cx="592.74" r="255.045" id="RadialGradient" gradientTransform="matrix(2.05036 0 0 0.227478 -589.767 368.402)" cy="369.322" gradientUnits="userSpaceOnUse">
<stop stop-color="#000000" stop-opacity="0.703863" offset="0"/>
<stop stop-color="#000000" stop-opacity="0.454936" offset="0.394737"/>
<stop stop-color="#000000" stop-opacity="0" offset="1"/>
</radialGradient>
<linearGradient gradientTransform="matrix(1 0 0 0.925101 -34.4465 29.6582)" gradientUnits="userSpaceOnUse" id="LinearGradient_2" x1="181.618" y1="424.395" y2="369.862" x2="181.127">
<stop stop-color="#a6a4a6" offset="0"/>
<stop stop-color="#777577" offset="0.180451"/>
<stop stop-color="#979395" offset="0.451128"/>
<stop stop-color="#bcbbc1" offset="0.503759"/>
<stop stop-color="#e2e0e0" offset="0.781955"/>
<stop stop-color="#afb0b0" offset="1"/>
</linearGradient>
<linearGradient gradientTransform="matrix(1 0 0 0.925101 -514.06 60.2227)" gradientUnits="userSpaceOnUse" id="LinearGradient_3" x1="641.108" y1="396" y2="396" x2="672.056">
<stop stop-color="#000000" stop-opacity="0" offset="0"/>
<stop stop-color="#000000" stop-opacity="0.0535901" offset="0.421053"/>
<stop stop-color="#000000" stop-opacity="0.128755" offset="0.785714"/>
<stop stop-color="#000000" stop-opacity="0.403433" offset="1"/>
</linearGradient>
<linearGradient gradientTransform="matrix(1.03652 0 0 1.09779 -42.7927 -38.7255)" gradientUnits="userSpaceOnUse" id="LinearGradient_4" x1="455.827" y1="447.463" y2="328.702" x2="455.879">
<stop stop-color="#a6a4a6" offset="0"/>
<stop stop-color="#777577" offset="0.180451"/>
<stop stop-color="#979395" offset="0.451128"/>
<stop stop-color="#bcbbc1" offset="0.503759"/>
<stop stop-color="#e2e0e0" offset="0.781955"/>
<stop stop-color="#afb0b0" offset="1"/>
</linearGradient>
<linearGradient gradientTransform="matrix(1.0132 0 0 0.951852 -3.69281 18.0932)" gradientUnits="userSpaceOnUse" id="LinearGradient_5" x1="931.581" y1="360.312" y2="280.988" x2="931.581">
<stop stop-color="#0000a1" offset="0.293233"/>
<stop stop-color="#1b8bef" offset="0.860902"/>
<stop stop-color="#b4f1ff" offset="0.898496"/>
<stop stop-color="#187ce7" offset="1"/>
</linearGradient>
<linearGradient gradientTransform="matrix(1.0132 0 0 0.951852 -3.69281 18.0932)" gradientUnits="userSpaceOnUse" id="LinearGradient_6" x1="837.431" y1="468.134" y2="324.81" x2="838.25">
<stop stop-color="#075db2" offset="0"/>
<stop stop-color="#0000a1" offset="0.195489"/>
<stop stop-color="#0d47aa" offset="0.458647"/>
<stop stop-color="#005fe1" offset="0.545113"/>
<stop stop-color="#0046cd" offset="0.755639"/>
<stop stop-color="#1364da" offset="1"/>
</linearGradient>
<linearGradient gradientTransform="matrix(1 0 0 1 10.3858 -8.69687e-08)" gradientUnits="userSpaceOnUse" id="LinearGradient_7" x1="641.108" y1="396" y2="396" x2="672.056">
<stop stop-color="#000000" stop-opacity="0" offset="0"/>
<stop stop-color="#000000" stop-opacity="0.0535901" offset="0.421053"/>
<stop stop-color="#000000" stop-opacity="0.128755" offset="0.785714"/>
<stop stop-color="#000000" stop-opacity="0.403433" offset="1"/>
</linearGradient>
<radialGradient cx="592.74" r="255.045" id="RadialGradient_2" gradientTransform="matrix(2.05036 0 0 0.227478 -610.565 354.229)" cy="369.322" gradientUnits="userSpaceOnUse">
<stop stop-color="#180400" stop-opacity="0.703863" offset="0"/>
<stop stop-color="#070800" stop-opacity="0.454936" offset="0.394737"/>
<stop stop-color="#140d02" stop-opacity="0" offset="1"/>
</radialGradient>
<linearGradient gradientTransform="matrix(1 0 0 1 -6.18459 3.62085)" gradientUnits="userSpaceOnUse" id="LinearGradient_8" x1="468.595" y1="436.452" y2="351.754" x2="468.859">
<stop stop-color="#000000" offset="0"/>
<stop stop-color="#000000" stop-opacity="0.63128" offset="0.484962"/>
<stop stop-color="#000000" stop-opacity="0.261803" offset="0.567669"/>
<stop stop-color="#000000" stop-opacity="0.592275" offset="1"/>
</linearGradient>
<linearGradient gradientTransform="matrix(1 0 0 1 -592.144 -364.987)" gradientUnits="userSpaceOnUse" id="LinearGradient_9" x1="592.144" y1="374.097" y2="374.097" x2="661.66">
<stop stop-color="#000000" offset="0"/>
<stop stop-color="#000000" stop-opacity="0.63128" offset="0.484962"/>
<stop stop-color="#000000" stop-opacity="0.261803" offset="0.567669"/>
<stop stop-color="#000000" stop-opacity="0.592275" offset="1"/>
</linearGradient>
<radialGradient cx="592.74" r="255.045" id="RadialGradient_3" gradientTransform="matrix(-1.75477 0 0 0.0687468 1729.9 331.94)" cy="369.322" gradientUnits="userSpaceOnUse">
<stop stop-color="#ffffff" stop-opacity="0.403433" offset="0"/>
<stop stop-color="#bcf6ff" stop-opacity="0" offset="1"/>
</radialGradient>
</defs>
<g id="Background">
<path fill="url(#LinearGradient)" d="M-73.2919 -40.8336 L1306.8 -40.8336 L1306.8 829.042 L-73.2919 829.042 L-73.2919 -40.8336 Z" opacity="1"/>
</g>
<g id="Soft Shadow">
<path fill="url(#RadialGradient)" d="M88.575 451.277 C88.575 418.607 327.286 392.124 621.752 392.124C916.217 392.124 1154.93 418.607 1154.93 451.277C1154.93 483.946 916.217 510.43 621.752 510.43C327.286 510.43 88.575 483.946 88.575 451.277Z" opacity="1"/>
</g>
<g id="Cast Shadow" opacity="0.681818">
<path d="M657.908 379.623 C657.908 379.623 657.908 402.468 693.332 402.468C728.756 402.468 728.756 391.046 728.756 391.046C728.756 391.046 894.684 392.355 912.396 392.355C925.672 392.355 932.91 397.59 935.704 409.826C902.69 407.168 865.308 405.284 824.881 405.284C685.063 405.284 634.028 405.284 632.631 405.284L630.048 405.284 L630.048 413.356 C532.303 413.356 316.386 413.356 241.705 413.356C160.228 413.356 150.443 431.474 149.27 435.566L122.579 435.566 L122.579 435.606 L118.889 435.606 L117.444 435.606 L117.444 439.671 C99.1523 440.274 71.4412 444.06 69.289 450.975C69.5411 457.958 98.8729 461.692 117.444 462.278L117.444 466.343 L118.889 466.343 L149.27 466.343 C150.356 470.301 159.777 488.594 241.705 488.594C316.386 488.594 547.601 488.594 645.347 488.594L645.347 496.665 L647.93 496.665 C649.326 496.665 685.063 496.665 824.881 496.665C966.578 496.665 1101.58 469.734 1101.58 469.734C1101.58 469.734 1092.46 444.46 1077.99 430.637C1063.51 416.815 1050.88 423.561 1014.95 418.531C1008.09 399.581 991.659 380.932 965.532 380.932C930.108 380.932 657.908 379.623 657.908 379.623Z" opacity="1" fill-opacity="0.364807" fill="#000000"/>
</g>
<g id="Pen">
<path fill="#000082" d="M126.886 378 C108.886 378 75.2771 384.086 72.8856 396C73.1654 408.02 108.886 414 126.886 414C144.886 414 144.886 378 126.886 378Z" opacity="1"/>
<path fill="url(#LinearGradient_2)" d="M121.837 371.769 L172.569 371.769 L172.569 420.227 L121.837 420.227 L121.837 371.769 Z" opacity="1"/>
<path fill="url(#LinearGradient_3)" d="M127.049 371.722 L157.996 371.722 L157.996 419.669 L127.049 419.669 L127.049 371.722 Z" opacity="1"/>
<path fill="url(#LinearGradient_4)" d="M733.198 336.719 C733.198 336.719 341.393 336.719 248.106 336.719C154.82 336.719 153.995 373.132 153.995 373.132L153.995 418.868 C153.995 418.868 154.82 455.281 248.106 455.281C341.393 455.281 733.198 455.281 733.198 455.281L733.198 336.719 Z" opacity="1"/>
<path d="M121.837 371.769 L123.313 371.769 L123.313 420.227 L121.837 420.227 L121.837 371.769 Z" opacity="1" fill-opacity="0.369099" fill="#ffffff"/>
</g>
<g id="Cap">
<path fill="url(#LinearGradient_5)" d="M1082.61 375.647 C1082.61 341.38 1064.37 289.98 1027.9 289.98C991.421 289.98 711.145 288 711.145 288C711.145 288 711.145 322.267 747.62 322.267C784.096 322.267 784.096 305.134 784.096 305.134C784.096 305.134 954.946 307.113 973.184 307.113C991.421 307.113 998.598 321.051 998.598 355.317C998.598 389.584 1082.61 409.913 1082.61 375.647Z" opacity="1"/>
<path fill="url(#LinearGradient_6)" d="M682.451 326.493 C682.451 326.493 737.164 326.493 883.065 326.493C1028.97 326.493 1138.39 360.76 1138.39 360.76L1138.39 429.293 C1138.39 429.293 1028.97 463.56 883.065 463.56C737.164 463.56 682.451 463.56 682.451 463.56L682.451 326.493 Z" opacity="1"/>
<path d="M682.451 326.493 L685.131 326.493 L685.131 463.56 L682.451 463.56 L682.451 326.493 Z" opacity="1" fill-opacity="0.613734" fill="#5be1ff"/>
<path fill="url(#LinearGradient_7)" d="M651.494 336.719 L682.441 336.719 L682.441 455.281 L651.494 455.281 L651.494 336.719 Z" opacity="1"/>
<path d="M1135.27 359.823 L1138.39 360.76 L1138.39 429.293 L1135.27 430.225 L1135.27 359.823 Z" opacity="1" fill-opacity="0.266094" fill="#242d4e"/>
</g>
<g id="Shadow" opacity="0.710227">
<path fill="url(#RadialGradient_2)" d="M67.7767 437.104 C67.7767 404.434 306.488 377.951 600.953 377.951C895.419 377.951 1134.13 404.434 1134.13 437.104C1134.13 469.774 895.419 496.257 600.953 496.257C306.488 496.257 67.7767 469.774 67.7767 437.104Z" opacity="1"/>
</g>
<g id="Inkpad Text">
<path fill="url(#LinearGradient_8)" d="M372.828 361.062 C371.323 362.825 353.381 398.643 351.328 403.408C348.552 409.849 352.792 414.654 355.578 416.743C359.405 419.613 367.188 413.663 377.693 406.139C379.119 405.118 390.21 396.577 393.959 393.757C393.365 395.443 392.731 397.185 391.455 400.086C391.312 400.411 388.245 407.268 387.887 408.111C387.44 409.159 387.129 409.941 386.94 410.516C386.813 410.904 386.737 411.224 386.704 411.522C386.668 411.838 386.672 412.124 386.782 412.468C387.032 413.244 387.744 413.848 388.656 413.848C389.881 413.848 390.367 413.394 394.038 409.55C394.741 408.814 410.456 392.577 412.848 391.569C416.588 389.991 415.626 393.004 413.751 397.018C413.13 398.348 404.994 411.535 406.444 413.103C407.66 414.419 410.084 414.173 411.665 413.789C420.102 411.738 426.789 407.929 435.226 399.968C432.708 404.561 428.441 412.319 428.404 412.389C428.313 412.562 428.263 412.666 428.227 412.744C428.201 412.794 428.209 412.794 428.128 413.02L432.972 415.547 C433.051 415.447 433.076 415.413 433.149 415.291C434.815 412.515 437.322 406.913 441.378 402.511C440.81 409.708 445.42 415.464 452.044 415.504C459.299 415.549 465.759 412.823 471.524 408.032C461.492 421.183 452.517 436.887 452.517 443.25C452.521 443.48 453.075 445.577 453.754 446.1C454.558 446.358 456.483 446.152 458.065 445.221C459.368 444.818 464.087 431.045 466.91 425.974C470.047 420.34 471.877 416.998 474.422 412.389C474.611 412.708 474.843 413.017 475.27 413.198C475.37 413.24 475.501 413.257 475.605 413.296L475.605 413.316 C475.726 413.342 475.853 413.369 476 413.414C476.059 413.433 476.117 413.456 476.177 413.474C476.286 413.51 476.378 413.536 476.532 413.592C476.603 413.617 477.113 413.81 477.222 413.848C481.151 415.234 485.54 415.028 494.494 412.133C496.769 411.397 499.31 410.073 502.538 408.071C503.798 407.29 505.131 406.445 506.895 405.272C507.222 405.054 510.456 402.879 511.43 402.235C512.26 401.686 512.838 401.364 513.599 400.875C511.468 403.626 509.828 406.504 509.202 409.037C508.325 412.592 509.254 415.502 512.258 416.333C518.21 417.977 524.618 414.853 531.226 408.466C531.788 407.922 532.272 407.267 532.823 406.691C532.329 407.969 531.629 409.516 531.364 410.496C531.032 411.721 530.866 412.737 530.93 413.572C531.04 415.017 531.871 416.162 533.394 416.293C536.365 416.549 539.193 415.499 542.208 413.276C543.608 412.244 545.029 410.979 546.802 409.254C546.864 409.193 547.052 409.002 547.137 408.919C546.772 413.848 549.454 416.524 554.905 417.042C560.602 417.584 566.959 413.738 571.25 409.037C570.471 411.867 570.359 414.052 571.092 415.544C573.344 420.124 580.661 418.913 592.16 410.175C592.992 409.542 592.25 407.031 591.617 406.198C590.985 405.366 588.415 404.435 587.734 405.227C584.312 409.207 579.761 412.307 577.066 413.375C575.956 413.815 575.139 413.977 574.661 413.927C574.494 413.91 574.507 413.916 574.484 413.868C573.745 412.366 575.59 406.804 579.61 398.962C582.972 392.405 600.457 367.633 601.653 365.534C601.653 365.534 599.435 356.8 593.829 363.445C588.224 370.091 579.173 389.11 578.072 391.095C570.638 387.83 557.165 389.731 548.998 401.1C544.837 405.536 541.197 409.308 539.96 410.22C538.077 411.609 537.187 411.409 536.759 409.783C536.807 409.465 536.79 409.266 536.917 408.797C537.377 407.101 544.861 398.508 546.028 395.573C546.059 395.453 543.88 391.513 543.348 390.471C542.961 390.159 541.931 391.425 541.715 391.352C543.408 388.537 540 386.625 539.987 386.622C534.974 385.005 528.862 387.86 522.701 390.428C518.475 392.19 515.234 395.185 509.34 399.081C508.356 399.731 505.105 401.905 504.786 402.117C503.664 402.863 502.899 403.345 502.045 403.891C503.861 400.341 506.968 395.051 503.662 390.635C500.636 386.593 492.323 388.267 486.745 392.18C486.345 392.46 485.914 392.849 485.503 393.166C485.672 392.815 486.034 392.291 486.154 391.983C486.496 391.103 486.661 390.354 486.568 389.636C486.397 388.327 485.356 387.448 484.024 387.448C483.268 387.448 481.59 387.724 481.253 388.21C479.515 390.711 476.297 397.702 474.087 400.224C467.699 407.514 460.407 411.77 452.064 411.719C447.897 411.693 444.885 408.167 445.064 403.32C449.24 404.303 453.877 404.059 457.407 402.294C462.615 399.691 466.702 393.216 464.905 386.029C464.457 384.238 462.246 383.189 460.552 383.019C459.316 382.895 457.187 383.601 455.631 384.425C453.454 385.578 451.119 388.104 447.174 391.391C445.577 392.722 443.29 394.978 440.904 397.464C442.923 393.782 443.199 393.301 445.479 389.143C446.999 387.452 448.283 386.164 449.954 384.234C454.279 379.239 458.468 372.573 460.798 367.298C461.971 364.642 462.541 362.687 462.336 361.383C462.1 359.879 460.977 358.766 459.453 359.179C458.656 359.394 457.045 359.771 455.986 361.328C455.958 361.378 448.776 374.319 441.814 387.014C429.73 400.413 421.751 405.435 412.521 408.247C413.606 406.403 416.961 400.173 417.865 398.842C422.922 391.394 422.264 390.38 419.49 387.433C417.612 385.437 414.353 383.569 410.951 385.821C408.545 387.415 400.111 397.721 399.086 398.765C397.792 400.083 396.499 401.441 394.886 403.142C394.856 403.174 394.137 403.943 393.664 404.443C394.027 403.63 394.786 401.92 394.925 401.604C396.625 397.738 397.708 395.011 398.297 393.028C398.715 391.62 398.878 390.616 398.711 389.774C398.309 387.746 395.01 384.966 393.407 385.927C391.79 386.898 361.644 416.603 358.884 410.871C358.758 410.609 358.497 410.075 358.667 408.821C358.874 407.288 359.537 405.206 360.638 402.649C362.604 398.087 365.824 392.259 370.359 384.826C371.146 383.534 371.975 382.187 372.863 380.764C373.993 378.952 379.739 369.879 380.237 369.092C382.936 364.821 384.586 362.13 385.757 360.022C386.265 359.108 385.942 357.967 385.028 357.459C384.571 357.205 375.046 358.465 372.828 361.062ZM457.891 389.097 C460.894 391.099 459.302 397.138 455.731 398.923C452.63 400.473 448.092 400.529 444.414 399.258C446.403 397.214 448.274 395.414 449.599 394.309C453.331 391.199 454.002 390.515 455.86 389.53C456.788 389.039 457.751 389.003 457.891 389.097ZM536.51 392.791 C537.284 392.817 538.057 392.949 538.836 393.067C536.329 397.02 536.375 396.429 530.626 402.004C526.064 406.427 519.408 412.468 515.56 410.692C514.083 410.01 512.944 407.172 517.463 401.959C522.538 396.107 529.39 392.549 536.51 392.791ZM494.04 392.85 C495.396 392.66 496.545 392.988 497.136 394.053C499.364 398.069 497.756 404.314 491.466 407.594C486.009 410.44 479.861 411.031 476.729 409.708C476.619 409.679 476.504 409.633 476.394 409.609C476.207 409.569 476.09 409.681 475.921 409.688C476.424 408.775 477.183 407.406 477.597 406.652C481.649 401.762 485.597 397.616 488.934 395.275C490.995 393.829 492.684 393.04 494.04 392.85ZM576.041 394.763 C575.581 395.634 574.954 396.876 574.543 397.622C568.831 407.991 565.165 412.519 558.532 412.898C556.596 413.009 555.513 412.425 555.082 410.887C553.494 405.224 556.991 400.248 562.197 396.537C567.273 392.918 575.21 394.694 576.041 394.763Z" opacity="1"/>
<text fill="url(#LinearGradient_9)" transform="matrix(1 0 0 1 608.346 377.692)" opacity="1">
<tspan y="14" font-size="14" font-family="'Helvetica'" x="0">
REAL
</tspan>
<tspan y="31" font-size="14" font-family="'Helvetica'" x="0">
COOL</tspan>
</text>
</g>
<g id="Highlight">
<path fill="url(#RadialGradient_3)" d="M1149.35 356.986 C1149.35 347.113 945.054 339.109 693.041 339.109C441.027 339.109 236.73 347.113 236.73 356.986C236.73 366.859 441.027 374.863 693.041 374.863C945.054 374.863 1149.35 366.859 1149.35 356.986Z" opacity="1"/>
</g>
<g id="Signature">
<text opacity="1" fill-opacity="0.854077" transform="matrix(1.93571 0 0 1.93571 786.728 717.813)" fill="#001c81">
<tspan y="10" font-size="10" font-family="'Helvetica'" x="72.2297">
© Copyright 2011 Ron Letkeman </tspan>
</text>
<text opacity="1" fill-opacity="0.708154" transform="matrix(1.93571 0 0 1.93571 785.944 743.33)" fill="#ffffff">
<tspan y="14" font-size="14" font-family="'Helvetica'" x="115.348">
DigitalDrawer.ca</tspan>
</text>
</g>
</svg>
