<?xml version="1.0" encoding="UTF-8"?><svg xmlns="http://www.w3.org/2000/svg" width="500" height="500" viewbox="0 0 500 500" > <path stroke="rgb(0,0,0)" fill="none" d="M32 32L38 33L39 33L40 33L42 33L44 33L46 33L50 33L53 33L55 33L59 33L61 34L63 35L65 36L67 38L69 40L69 41L71 42L73 43L74 45L77 47L78 48L81 50L83 52L84 54L84 55L85 57L85 58L85 60L85 62L85 63L85 64L85 65L85 66L84 68L84 70L83 70L82 72L81 73L79 74L78 76L75 77L73 78L70 80L67 82L64 83L62 84L60 86L56 88L54 90L50 92L47 94L44 96L40 99L39 101L37 102L36 104L34 106L33 107L32 109L32 111L31 112L30 115L29 115L28 116L27 118L27 119L27 120L27 121L27 122L27 123L27 124L27 125L27 126L27 127L27 128L28 129L29 130L30 130L31 131L32 133L32 134L33 136L35 137L36 138L37 139L38 141L39 143L40 144L40 145L41 147L41 148L42 149L42 151L43 153L44 153L44 154L45 155L45 157L45 158L45 159L45 159L45 160L45 161L45 162L45 164L44 166L44 167L44 170L44 171L43 174L42 176L41 177L40 179L40 181L39 182L39 184L38 185L38 186L38 188L37 196"/><path stroke="rgb(255,0,0)" fill="none" d="M34 38L40 30L41 30L43 30L45 30L46 30L49 30L51 30L53 31L56 32L58 32L61 33L63 34L65 35L68 36L69 36L72 37L73 38L73 39L73 40L74 41L74 42L74 43L74 44L74 45L75 46L75 47L75 48L75 49L75 50L75 52L75 54L76 56L76 58L76 60L76 62L76 64L76 65L76 66L76 68L76 69L76 70L76 70L76 72L76 73L75 74L74 75L73 77L73 78L72 79L71 80L69 82L68 83L66 84L64 86L64 87L62 88L61 89L59 90L57 92L54 92L51 93L49 95L46 96L44 97L40 98L39 99L37 100L35 101L33 102L32 102L31 102L30 103L29 103L29 104L29 105L29 106L29 107L29 108L29 109L29 110L29 111L30 113L32 115L33 117L34 119L35 121L36 123L37 125L38 125L38 127L39 128L39 129L39 130L40 131L40 132L40 133L40 134L40 135L40 136L41 137L41 138L42 139L42 141L43 143L43 144L44 146L44 147L44 148L45 149L45 150L45 152L45 153L45 156L45 157L45 158L45 159L44 160L43 161L43 162L42 162L42 163L42 164L42 165L41 166L41 167L40 167L40 170L40 171L39 173L39 174L39 176L38 176L37 177L37 178L37 179L37 180L37 176L50 162"/><path stroke="rgb(255,0,0)" fill="none" d="M139 63L149 59L151 59L152 59L154 59L156 59L157 59L159 59L161 59L162 59L164 59L165 59L167 60L169 61L171 62L172 63L173 64L174 65L175 66L176 67L178 69L180 69L181 70L183 72L184 73L185 75L185 77L186 78L186 79L187 81L188 82L188 83L189 84L189 86L190 88L190 89L190 90L190 91L190 92L190 94L190 95L190 97L190 98L190 99L190 101L190 102L189 104L188 106L187 107L187 109L186 111L185 111L185 113L184 114L183 115L182 115L181 117L180 118L180 120L179 121L177 122L175 125L173 126L171 128L169 129L167 130L165 131L163 132L160 133L158 134L155 134L152 135L150 136L147 136L144 137L142 137L139 138L137 138L135 139L134 140L132 140L130 141L129 142L127 142L126 143L125 143L125 144L124 145L123 146L123 147L123 148L123 149L123 150L123 151L123 152L123 153L124 154L124 155L125 155L125 156L125 157L126 158L127 158L128 158L128 159L129 159L129 159L129 160L129 161L130 162L131 163L132 164L133 165L134 167L135 169L136 170L137 171L138 173L138 174L139 175L139 176L140 177L140 178L140 179L140 181L141 181L141 183L141 185L141 186L141 189L141 190L142 190L142 191L142 198"/><path stroke="rgb(255,0,0)" fill="none" d="M243 79L256 78L260 79L267 82L281 88L289 92L297 97L303 103L306 106L308 109L309 111L309 112L309 115L309 115L308 117L307 120L305 124L303 127L301 132L298 138L296 143L292 153L288 158L284 162L280 166L277 168L273 171L269 171L266 172L262 174L258 176L255 176L248 180L242 181L237 185L232 189L226 195L222 199L220 202L218 204L218 207L218 209L218 211L218 213L218 217L218 220L218 223L218 226L218 228L218 232L218 235L217 237L214 242L210 247L207 250L203 257"/><path stroke="rgb(0,255,0)" fill="none" d="M126 352L129 358L129 361L129 366L129 370L129 376L129 380L129 383L129 387L129 390L129 393L129 396L129 400L129 403L129 405L128 409L128 412L127 416L126 419L126 423L126 426L126 429L126 433L125 437L125 441L125 444L125 446L125 449L125 452L125 454L125 455L125 456L125 457L125 458L125 459L125 460L124 460L123 460L115 464"/><path stroke="rgb(0,255,0)" fill="none" d="M118 364L112 356L112 353L111 351L110 348L109 345L107 340L106 337L106 336L105 333L104 331L103 329L103 328L103 326L103 325L103 323L103 321L104 318L105 317L106 315L106 313L106 311L108 309L110 307L111 306L114 304L115 302L119 301L122 300L127 298L130 297L134 296L138 294L141 294L144 294L148 293L152 293L155 293L159 293L162 294L166 296L168 297L171 300L173 302L174 304L176 306L179 311L180 314L181 317L182 324L184 330L184 335L184 341L184 345L184 348L183 352L182 353L180 355L176 356L174 358L171 358L167 360L163 360L159 361L155 362L151 362L148 362L143 362L139 362L136 362L134 362L131 362L129 362L128 360L126 360L125 358L123 358L121 356L120 354L120 353L119 350L118 348L117 345L115 342L115 338L115 335L115 330L119 322L127 315L133 310L138 307L141 306L144 305L148 305L151 305L152 305L155 306L157 306L158 308L160 310L161 311L162 312L162 313L162 315L162 317L162 318L162 320L162 321L159 323L157 325L155 326L152 328L148 330L144 331L139 332L136 333L130 333L127 333L122 333L117 333L114 333L111 332L110 331L109 330L109 329L110 328L112 327L115 325L119 323L122 322L126 321L129 320L132 320L135 320L137 320L140 321L142 322L143 324L144 325L146 327L146 329L147 330L147 331L147 332L147 333L146 334L145 335L144 335L143 336L140 336L137 336L131 336L125 337L120 337L116 337L113 337L111 337L110 337L110 336L110 335L110 334L110 333L115 330L120 327L126 324L134 321L142 320L151 320L157 320L162 320L166 320L168 320L169 321L169 322L169 323L167 324L166 325L163 325L159 325L154 327L147 329L140 330L133 332L129 333L124 334L120 335L119 335L118 336L120 336L128 336L134 337L144 337L156 339L170 342L173 343L174 344L171 344L165 344L157 343L150 343L143 343L138 343L132 343L129 343L127 343L125 343L129 343L136 343L146 343L152 343L157 344L161 344L162 345L159 345L152 345L145 345L139 344L132 343L129 343L126 343L125 343L124 343L128 343L137 343L147 343L157 344L167 345L171 346L172 347L172 348L167 348L160 348L152 348L148 348L143 347L140 347L138 346L137 346L136 346L135 346L134 346L135 346L136 346L138 346L146 346L153 346L160 346L167 347L170 348L171 348L164 348L153 345L145 343L137 341L133 341L130 340L129 340L129 339L133 339L138 339L143 339L148 339L151 339L153 339L154 339L154 338L153 338L151 337L148 336L143 335L138 335L136 335L134 335L137 335L145 335L152 335L157 335L161 335L162 335L161 335L154 335L147 333L141 332L138 332L135 332L134 332L143 333L151 335L156 335L159 336L161 337L155 335L150 335L145 333L140 332L137 332L135 332L134 332L136 332L138 332L141 332L143 332L146 332L147 332L148 332L147 331L145 331L143 331L142 330L141 330L140 330L139 330L140 330L146 330L152 331L159 332L164 333L166 334L165 335L157 335L149 335L135 333L127 331L118 330L114 329L113 329L112 329L120 330L131 333L143 335L153 337L161 337L166 338L169 338L171 338L168 338L161 337L152 336L147 335L134 335L131 335L129 335L131 335L138 338L148 340L155 342L159 343L162 343L162 344L152 344L137 342L118 339L104 338L95 338L91 338L89 338L94 338L112 342L137 348L153 351L167 353L175 354L178 355L177 355L167 352L155 348L145 345L133 343L129 342L126 342L125 342L124 342L123 342L125 342L136 343L148 343L160 345L169 347L173 348L174 348L173 348L161 348L145 346L134 343L127 343L124 343L123 343L125 343L143 346L162 349L190 354L195 355L180 354L163 350L147 346L137 343L132 343L131 343L150 343L167 347L177 350L186 352L189 353L180 352L165 347L151 343L142 340L134 338L130 337L129 337L129 337L135 337L143 337L152 337L157 337L161 337L163 335L163 333L158 330L150 325L143 321L138 318L131 315L129 314L129 313L151 313L163 313L172 313L175 314L175 315L156 315L147 315L139 313L133 313L132 313L134 313L148 315L152 315L156 315L158 315L157 315L151 314L142 313L133 311L126 311L122 310L120 309L118 308L119 306L130 304L155 302L165 302L173 302L170 300L160 299L151 298L144 298L139 298L135 298L133 298L134 298L138 299L146 300L152 302L158 303L162 305L162 306L161 307L149 308L122 311L115 311L110 311L114 312L131 314L151 316L179 322L185 323L186 323L183 323L167 322L149 319L135 319L121 318L110 318L123 322L138 325L153 327L164 330L171 330L172 331L167 331L157 330L146 329L137 329L131 329L129 329L128 329L130 330L142 330L153 332L162 333L171 335L167 335L155 335L134 333L128 333L125 333L131 334L143 335L156 337L167 338L167 339L155 338L143 337L125 336L123 336L128 337L138 338L150 341L157 342L165 343L163 343L157 343L144 343L140 343L138 343L144 344L148 345L152 346L161 348L162 348L158 348L154 348L149 348L145 348L142 348L141 348L142 348L147 348L155 349L159 350L162 350"/><path stroke="rgb(0,0,255)" fill="none" d="M242 369L250 367L254 367L258 367L263 367L269 368L275 369L282 370L287 371L296 372L302 373L307 374L312 375L317 375L320 376L324 376L326 376L329 376L329 376L333 376L335 377L338 377L341 377L345 378L349 379L352 379L355 380L358 381L361 381L363 382L366 382L368 382L371 382L374 383L378 384L385 385L401 388"/><path stroke="rgb(0,0,255)" fill="none" d="M243 375L246 380L246 383L247 385L247 390L248 394L248 399L249 404L249 407L249 411L249 414L249 417L249 419L249 421L249 423L249 426L249 428L249 432L249 435L249 437L249 440L249 442L249 445L249 447L249 449L249 452L249 455L249 458L250 461L250 464L250 466L250 469L250 471L250 472L250 473L251 474L252 475L253 475L255 475"/><path stroke="rgb(0,0,255)" fill="none" d="M389 414"/><path stroke="rgb(0,0,255)" fill="none" d="M398 397L398 402L398 404L398 407L398 410L399 413L399 418L399 422L399 426L399 431L399 436L399 441L399 446L399 450L399 454L399 458L399 463L400 467L401 471L401 474L403 478L404 482L404 486L404 488L404 489L405 491L406 492L406 493L407 493L408 493L409 493L410 491L411 489"/><path stroke="rgb(0,0,255)" fill="none" d="M316 343"/><path stroke="rgb(0,0,255)" fill="none" d="M273 353L279 353L284 353L287 353L292 354L299 355L303 356L307 357L311 358L315 358L320 358L323 358L327 358L330 358L334 359L339 359L342 359L345 359L348 359L351 359L352 359L354 359L355 359L356 359L357 359L357 358L358 357L359 356L359 355L359 353L359 352L359 351L359 350L358 349L357 348L355 346L352 344L348 341L345 339L341 338L335 336L329 335L325 335L318 333L314 333L308 332L305 331L302 331L297 331L294 331L292 331L288 331L286 332L283 334L281 335L278 337L278 337L276 338L275 340L274 342L273 344L273 346L273 347L273 348L273 350L273 352L274 353L276 354L278 355L279 357L282 358L283 360L284 361L286 362L287 362L287 363L288 364L289 364"/><path stroke="rgb(0,0,0)" fill="none" d="M303 283L304 293L304 293L304 296L304 298L304 301L304 304L304 306L303 309L302 311L302 313L301 315L300 316L299 318L298 320L298 322L298 324L297 325L297 328L297 330L296 332L296 333L296 334L296 335L296 336L296 337L296 337L296 338L296 339L296 340L296 341L297 341L298 341L300 341L302 341L305 341L307 341L309 341L311 341L315 341L317 341L320 342L325 342L330 343L338 343L343 345L350 346L354 347L357 348L361 348L363 348L364 348L364 347L364 346L364 345L364 344L364 343L364 341L364 338L365 336L366 332L366 330L367 327L367 325L368 323L368 320L369 319L369 317L370 315L370 315L371 313L372 311L372 309L373 307L374 306L374 305L374 303L374 302L374 301L374 300L373 300L372 299L371 299L370 298L369 298L367 298L366 297L363 297L360 296L357 294L353 293L350 293L347 291L343 290L340 288L338 288L334 286L332 286L329 285L329 284L327 284L325 283L324 283L322 283L321 283L320 283"/><path stroke="rgb(0,0,0)" fill="none" d="M343 299L340 293L339 293L339 292L339 291L338 291L337 291L336 290L335 289L334 289L334 288L333 288L331 288L330 288L329 287L329 287L327 286L325 286L323 285L321 285L319 284L315 283L312 282L310 282L307 281L306 281L305 281L304 280L303 280L302 280L301 280"/><path stroke="rgb(0,0,0)" fill="none" d="M315 273L315 260L315 259L315 256L316 255L318 252L320 250L320 248L322 246L324 244L325 241L326 239L327 237L328 236L329 235L329 233L329 232L330 231L331 231L332 230L334 229L335 229L336 229L339 229L340 229L343 229L347 229L350 229L352 230L358 231L366 232L374 234L378 235L382 236L385 237L388 238L389 239L389 240L389 241L388 243L387 245L386 247L385 250L384 252L382 255L380 259L378 263L376 266L375 269L374 271L372 274L371 276L369 278L367 282L367 283L365 286L364 288L363 290L362 293L362 294L361 296L360 297L359 297L359 298L359 299L358 299"/><path stroke="rgb(0,0,0)" fill="none" d="M319 255L316 262L316 265L316 266L316 268L316 269L315 271L315 272L314 273L314 274L314 275L314 276L314 277"/><path stroke="rgb(0,0,0)" fill="none" d="M351 221L352 213L352 211L352 208L352 207L352 205L352 204L352 203L352 201L352 200L352 199L352 196L352 195L352 193L352 190L354 188L355 185L356 184L357 183L357 182L358 182L359 182L360 181L361 181L362 181L363 181L364 181L365 181L366 181L367 182L371 182L373 183L375 184L378 184L380 185L383 185L385 186L385 187L386 188L387 189L388 190L389 191L389 192L389 193L389 194L389 195L389 196L388 197L387 199L386 200L385 202L385 204L384 206L382 208L381 210L380 212L378 213L377 215L375 217L375 218L374 220L373 222L372 223L372 224L371 226L370 226L370 227L369 228L369 229L369 230"/><path stroke="rgb(0,0,0)" fill="none" d="M391 123L389 133L389 135L389 138L389 142L388 144L387 148L386 149L386 152L385 153L385 155L384 157L382 159L380 161L377 164L375 167L374 170L372 172L372 175L371 177L370 179L370 180L370 181L370 181"/><path stroke="rgb(0,0,0)" fill="none" d="M420 111"/><path stroke="rgb(0,0,0)" fill="none" d="M389 115L396 106L398 105L400 103L402 102L404 100L406 98L407 97L408 96L408 94L409 94L409 95L408 98L405 102L400 107L395 114L390 118L387 121L384 124L381 126L380 127L380 128L379 128L379 127L381 123L385 117L386 114L390 108L390 104L391 101L393 97L394 96L395 94L396 94L396 93L397 93L398 93L398 94L398 96L398 97L398 99L398 102L397 104L396 106L395 110L393 114L391 115L389 118L387 121L385 124L385 125L384 125L383 126L382 127L381 127L381 125L385 118L390 113L394 106L396 104L397 102L399 100L399 99L400 99L400 100L400 101L400 102L400 104L399 107L398 110L396 112L395 115L395 115L393 117L392 118L391 119L390 120L392 118L397 113L401 111L403 109L404 107L406 107L407 107L407 108L406 109L404 111L402 114L399 115L398 119L396 120L396 122L395 123L395 124L395 125"/><path stroke="rgb(0,255,0)" fill="none" d="M392 125L394 118L395 115L395 113L397 110L399 106L400 103L403 101L404 97L407 95L408 92L410 91L411 89L412 88L412 89L411 90L410 92L407 96L404 100L400 104L396 108L395 111L391 115L388 118L385 120L383 122L380 124L379 125L378 125L377 125L379 120L381 115L385 111L387 107L389 105L390 102L392 100L394 98L395 98L396 97L396 97L397 97L398 97L399 96L399 97L399 98L398 99L397 101L395 104L394 106L392 109L390 111L390 112L389 113L388 114"/><path stroke="rgb(255,0,0)" fill="none" d="M369 204L369 206L368 209L367 212L364 216L363 218L362 220L361 222L360 223L359 223L359 221L361 219L362 218L364 216L366 213L367 211L368 208L370 206L372 204L372 203L374 200L374 199L374 198L375 196L375 195L375 194L375 192L375 191L375 190L376 190L376 191L375 194L374 196L373 201L371 204L368 208L367 212L364 216L362 219L362 221L360 223L359 223L359 224L359 223L360 221L361 219L362 216L362 213L363 210L365 207L366 204L367 203L368 202L369 200L370 200L371 199L372 199L373 198L374 198L374 199L374 200L374 201L374 204L374 205L373 209L372 213L371 217L370 220L368 222L367 223L366 224L365 225L364 226L364 225L364 224L365 223L366 221L367 218L370 216L372 214L373 212L374 209L375 208L376 208L377 207L378 206L379 206L380 206L380 205L381 205L381 206L380 207L380 208L379 211L376 214L375 218L372 221L370 224L368 226L367 227L365 228L364 229L363 229L363 227L363 226L363 222L363 218L364 213L365 209L366 206L367 204L368 200L369 198L370 195L371 193L371 194L371 196L370 200L368 204L366 209L364 213L363 217L362 219L362 220L361 220L360 220L360 218L360 214L360 210L361 206L362 201L363 197L364 195L365 192L365 191L365 192L365 195L365 196L365 200L364 203L363 206L362 209L362 211L361 213L361 210L362 206L363 203L365 199L367 195L367 191L368 189L369 189L369 190L368 191L367 194L366 199L363 203L362 206L359 209L357 212L357 213L356 213L356 212L357 208L362 204L366 200L369 195L372 193L374 190L375 188L375 189L375 190L375 191L374 194L374 197L373 200L371 204L369 207L368 209L367 210L367 211L366 211L366 208L366 205L367 203L367 200L368 196L368 195L368 194L367 194L367 195L366 195L365 198L362 201L361 204L359 206L357 208L357 209L357 208L358 205L360 202L362 198L362 194L363 190L364 187L364 185L365 185L366 185L366 186L366 187L366 190L366 195L365 203L364 211L363 221L363 231L363 241"/><path stroke="rgb(0,0,255)" fill="none" d="M330 262L339 258L343 258L349 258L354 258L361 258L366 258L370 258L372 258L373 258L372 257L370 257L367 257L362 256L359 255L355 255L352 255L350 255L348 255L351 255L356 256L360 256L363 257L366 258L367 259L366 259L360 259L353 259L345 260L339 260L332 261L329 262L325 263L325 264L325 265L329 265L334 266L340 267L347 269L351 269L353 270L354 270L354 271L354 272L353 272L351 272L347 273L343 273L341 273L339 274L339 275L338 276L338 277L339 278L343 278L347 279L349 280L351 280L351 281L351 281L348 281L343 281L342 281L340 281L339 281L342 282L345 283L348 283L351 283L352 284L353 284L352 284L352 283L351 283L349 283L348 281L347 280L350 280L357 281L365 282L372 283L375 283L378 284L375 283L365 279L352 275L343 272L335 269L330 268L327 267L325 266L324 266L323 266L324 266L325 265L326 264L329 262L334 259L343 255L351 254L358 251L365 250L369 250L372 249L373 249L372 251L365 254L355 258L344 261L336 265L328 267L323 269L320 269L331 262L348 255L363 249L374 246L381 243L386 241L388 241L389 241L384 242L374 247L359 252L344 260L330 266L322 269L315 271L312 272L311 273L310 273L311 270L320 265L329 260L341 255L351 251L359 249L365 248L369 248L372 248L367 250L359 255L348 260L334 265L322 268L310 270L303 270L298 270L297 270L297 269L301 264L315 259L331 255L349 254L362 254L373 254L380 254L382 254L384 254L384 255L379 255L373 256L362 257L352 257L342 257L333 256L328 255L325 254L323 253L323 252L324 252L329 252L341 252L351 252L357 252L363 252L367 252L366 252L358 252L350 252L343 252L339 250L336 250L335 250L338 250L350 250L362 250L372 250L378 250L381 250L382 250L376 250L368 250L358 250L352 249L348 248L344 248L343 247L342 246L344 245L348 244L352 242L357 241L362 240L367 238L371 238L373 238L374 237L374 236L373 236L367 236L357 235L349 233L341 232L337 231L334 231L338 233L347 238L359 245L370 248L375 250L378 250L379 251L375 251L366 251L351 251L339 252L330 253L326 254L324 255L322 255L322 257L323 259L329 261L339 265L358 270L363 271L366 272L367 272L362 272L352 272L343 272L333 272L329 272L326 272L325 272L325 273L327 274L332 277L336 279L339 280L341 281L341 282L340 282L338 282L335 283L334 283L333 283L332 284L331 284L330 284L330 285L333 286L335 287L339 288L339 289L339 290L339 291L335 291L331 291L328 291L325 291L323 291L322 291L321 291"/><path stroke="rgb(0,0,0)" fill="none" d="M285 320L300 320L315 325L332 330L349 335L360 338L365 340L367 341L362 341L352 338L344 336L338 335L334 334L329 333L329 333L329 334L331 335L333 335L334 335L337 335L338 336L339 336L340 336L342 336L343 336L344 336L343 336L338 336L334 336L329 336L324 335L320 335L318 335L319 335L326 335L334 335L347 335L357 338L365 339L370 340L372 341L373 342L369 342L358 340L348 337L337 335L329 333L320 330L315 330L311 329L309 328L308 328L310 328L320 328L332 328L345 329L354 330L362 330L367 330L369 330L370 330L368 329L360 325L351 322L343 320L331 315L324 313L315 311L307 308L303 306L301 306L300 306L303 306L314 306L329 309L344 312L356 314L363 315L367 315L368 316L363 315L351 313L341 311L329 307L322 306L317 305L315 305L313 305L320 306L329 309L337 311L344 311L349 312L351 313L351 312L341 308L330 304L320 300L310 297L306 296L303 295L302 295L307 296L322 300L335 304L345 306L352 309L354 310L355 310L352 310L346 306L341 304L335 302L330 299L326 297L322 297L318 295L315 294L313 293L312 293L311 293L314 293L326 294L338 297L349 301L355 303L357 304L358 305L357 306L348 306L336 304L325 302L315 302L308 302L305 302L303 302L302 302L303 305L309 309L320 312L329 315L337 317L341 320L343 320L343 321L339 321L330 321L325 321L320 322L317 324L315 325L317 329L325 332L334 335L342 337L346 338L348 339L348 340L345 340L342 340L339 340L336 340L334 341L331 342L329 343L329 343"/><path stroke="rgb(0,255,0)" fill="none" d="M40 236"/><path stroke="rgb(0,255,0)" fill="none" d="M37 229L37 236L37 237L37 240L37 242L37 246L36 248L35 250L34 254L33 256L32 260L32 262L32 265L31 268L31 270L30 271L30 273L30 276L30 278L30 281L31 283L32 285L33 287L35 288L37 290L39 292L40 293L45 294L55 296L64 297L74 297L82 298L86 298L90 298L92 297L92 295L92 293L92 290L92 288L92 285L93 283L93 282L94 280L96 278L96 277L97 275L97 273L97 270L97 269L98 266L98 264L98 260L98 257L98 254L98 250L97 248L97 246L97 245L97 244L97 243L96 243L95 242"/><path stroke="rgb(0,255,0)" fill="none" d="M28 218L43 218L45 218L46 218L47 218L49 219L51 220L55 221L59 222L62 223L67 223L73 224L79 226L84 226L89 227L94 227L100 228L103 229L106 230L109 232L110 232L111 232L111 233L110 233"/><path stroke="rgb(0,255,0)" fill="none" d="M33 206L43 200L45 198L46 196L49 195L51 193L54 191L56 190L59 189L61 188L63 187L65 186L67 185L69 185L69 184L70 184L71 184L72 184L72 185L73 186L73 189L73 191L73 194L73 196L73 200L73 203L74 205L74 208L74 213L74 218L75 222L76 225L78 227L78 229L80 231L81 232L82 233L83 234"/><path stroke="rgb(0,255,0)" fill="none" d="M75 191L67 188L66 188L65 188L64 188L63 188L62 188L60 189L57 190L55 190L50 190L48 191L45 192L42 193L40 194L39 195L37 195L34 196L32 197L28 198L26 199L23 200L21 201L18 204L17 204L15 205L13 207L11 208L9 210L7 213L4 213L2 215L-1 217L-2 219L-5 221L-5 223L-8 224L-10 226L-12 227L-14 228L-15 230L-17 232L-19 233L-20 235L-21 237L-23 239L-25 241L-26 243L-27 245L-29 247L-29 248L-31 250L-32 252L-33 255L-34 256L-36 259L-38 261L-39 265L-40 268L-42 270L-43 273L-44 276L-45 278L-46 281L-47 283L-48 284L-48 285L-49 287L-49 288L-49 289L-49 291L-50 292L-50 293L-50 293L-50 294L-50 295L-50 296L-50 297L-51 297L-51 298L-51 299"/><path stroke="rgb(0,255,0)" fill="none" d="M63 184L67 185L69 185L71 185L73 185L75 185L78 186L79 187L81 188L83 189L83 190L84 190L85 191L87 192L88 193L90 195L92 196L93 197L95 199L97 200L99 201L101 204L102 204L104 206L106 208L106 209L108 211L110 213L112 214L114 217L115 218L117 220L119 222L120 224L121 226L123 227L124 229L125 232L127 234L128 236L129 239L130 242L132 246L134 248L135 250L137 254L138 256L139 258L141 260L142 263L143 265L144 267L146 269L148 270L148 271L149 272L149 273L150 273L150 274"/><path stroke="rgb(0,255,0)" fill="none" d="M27 199L38 191L40 190L43 189L45 187L47 185L50 184L50 182L52 181L53 181L53 180L54 178L54 176L54 175L55 173L55 171L56 169L57 167L58 166L59 163L60 162L61 159L62 158L63 156L64 154L66 153L68 150L69 149L70 147L72 144L74 143L76 141L79 138L81 136L83 134L85 131L87 128L91 126L92 124L95 121L97 120L98 117L99 115L100 115L101 113L101 112L101 111L101 112L101 113L101 114L101 115L101 115L101 117L101 120L102 125L102 129L102 134L103 138L103 143L104 147L104 150L104 153L104 156L104 158L104 160L104 162L104 164L104 166L104 168L103 170L103 172L102 174L102 176L102 178L102 180L102 181L101 182L100 184L100 186L99 189L98 190L98 192L98 194L98 195L98 196L98 197L97 197"/><path stroke="rgb(0,255,0)" fill="none" d="M89 111L81 95L81 93L81 92L81 91L82 89L83 88L83 87L83 86L84 85L85 84L86 83L87 83L87 82L89 82L90 82L91 81L92 81L93 81L95 81L96 81L97 81L99 81L100 81L101 82L102 83L103 83L104 84L105 85L106 85L106 86L106 87L107 88L109 89L110 90L110 92L110 92L110 93L110 95L110 97L110 98L110 100L110 101L110 102L110 104L110 105L110 106L109 107L108 108L106 109L106 110L102 111L99 111L95 111L92 111L89 111L87 111L85 111L84 110L83 108L83 106L83 105L83 103L83 102L83 100L83 98L83 96L83 95L83 92L83 92L83 91L84 89L85 88L87 87L87 85L88 85L89 84L90 84L91 84L92 84L93 84L94 84L94 85L94 86L94 87L94 88L94 89L94 90L94 92L94 95L94 97L94 98L94 100L94 101L94 102L94 103L93 104L93 105L92 105L91 105L91 104L91 103L91 102L91 101L91 99L91 98L92 97L92 96L93 94L95 93L97 92L98 92L100 91L101 90L102 89L102 88L103 88L104 88L105 88L105 89L105 90L105 91L105 92L105 92L105 93L105 94L104 96L103 97L103 98L102 100L102 101L101 102L100 102L99 103L99 104L98 104L98 105"/><path stroke="rgb(0,0,0)" fill="none" d="M41 243"/><path stroke="rgb(0,0,0)" fill="none" d="M89 253"/><path stroke="rgb(0,0,0)" fill="none" d="M57 247L57 245L57 246L56 246L55 246L56 246"/><path stroke="rgb(0,0,0)" fill="none" d="M89 258"/><path stroke="rgb(0,0,0)" fill="none" d="M78 253L82 251L82 252L81 252L80 252L79 252L78 252L78 251L79 251L80 250L81 250L82 250L82 251L82 252L82 253L82 254L81 254L80 254L79 254L79 253L80 253L82 253"/><path stroke="rgb(255,0,0)" fill="none" d="M55 263L59 272L59 273L60 273L61 274L62 275L63 276L64 277L65 278L66 278L67 278L68 278L69 278L70 278L71 278L72 278L73 277L73 276L73 275L73 274L74 273L75 273L75 272L75 271L76 270L76 269L76 268L76 267L77 267L77 266"/><path stroke="rgb(0,0,255)" fill="none" d="M47 299L45 306L45 307L45 309L45 311L45 312L45 314L45 315L45 316L45 318L45 320L45 321L45 323L45 325L45 326L45 327L45 329L45 330L45 331L45 332L45 333L45 334"/><path stroke="rgb(0,0,255)" fill="none" d="M83 297L79 304L79 305L79 307L78 310L78 311L77 314L76 315L75 317L74 319L73 320L73 322L73 324L72 325L72 326L71 328L70 330L69 330L69 331L69 332L69 333L68 334L68 335L67 336L67 337L68 337L69 337L71 337L72 337L73 337L74 337L75 337L76 337L78 337L80 337L83 337L84 337L85 337L87 337L89 337L90 337L91 337L92 337L93 337L94 337L95 337L96 337L97 337L98 337L99 337L100 337L101 337L102 337L103 337L104 337L105 337L106 337L106 337L106 337L106 337L106 338L105 338L104 339L104 340L103 341L103 342L103 343L102 344L102 346L102 347L102 349L101 351L100 353L99 355L98 357L97 359L97 361L96 362L95 364L94 366L94 367L93 367L93 369L92 370L92 371L92 372L92 374L91 375L91 376L90 376L90 377L90 378L89 378L89 379L89 380L90 380"/><path stroke="rgb(0,0,255)" fill="none" d="M36 340L27 335L26 335L24 335L22 335L21 335L19 334L18 334L17 334L17 334L16 334L14 334L13 334L12 335L11 335L10 335L10 336L9 337L9 337L9 338L8 340L8 342L8 344L8 346L8 349L8 352L8 354L8 358L8 360L8 363L8 366L8 369L8 371L8 374L8 376L8 377L8 378L8 379L8 380L8 379"/><path stroke="rgb(0,0,255)" fill="none" d="M19 336L25 335L27 335L28 335L30 335L32 334L33 334L35 333L37 332L38 331L39 330L40 328L41 327L42 326L44 325L45 325L45 324L45 323L46 322L46 320"/><path stroke="rgb(0,0,255)" fill="none" d="M9 385"/><path stroke="rgb(0,0,255)" fill="none" d="M7 388L4 381L5 381L8 381L10 381L13 381L15 381L17 381L18 381L21 381L23 381L27 381L28 381L30 381L32 382L34 382L37 382L38 382L39 382L40 382L41 382L42 382L43 382L45 382L55 382"/><path stroke="rgb(0,0,255)" fill="none" d="M92 388L84 384L83 383L81 383L78 382L76 382L73 381L69 381L68 380L67 379L66 379L65 379L66 379L67 379L68 379L69 379L69 380L70 381L70 382L70 382L70 384L71 385L71 387L71 390L71 392L71 395L71 398L70 402L70 404L70 408L69 413L69 416L68 419L67 423L66 425L65 427L64 430L64 432L63 433L62 434L62 436L61 437L60 437L59 437L58 438L57 438L56 438L54 438L51 438L47 438L43 438L39 438L34 438L29 438L24 437L20 437L17 437L16 437L15 437L14 436L14 435L14 434L15 432L17 430L19 428L22 427L23 425L24 424L25 423L26 420L26 418L26 415L26 413L27 410L27 407L28 404L29 401L29 399L30 395L31 392L31 388L32 385L32 382L32 379L32 376L32 374L32 372L33 371L34 371L35 370L36 370L36 371"/><path stroke="rgb(0,0,255)" fill="none" d="M28 448L28 455L28 459L28 462L27 466L27 470L26 473L25 477L24 481L23 483L22 485L22 486L22 488L22 489L22 490L22 491L22 492L22 493L22 494L21 499"/><path stroke="rgb(0,0,255)" fill="none" d="M46 439L49 449L49 452L49 455L49 459L49 463L49 467L49 471L48 474L47 478L47 482L47 486L47 488L46 493L45 495L45 498L45 501L45 503L45 504L45 505L45 506L45 505"/><path stroke="rgb(0,0,255)" fill="none" d="M27 437L26 446L26 448L26 450L25 453L24 456L23 458L23 460L22 461L22 464L22 465L22 468L22 471L22 473L22 476L22 478L22 479"/><path stroke="rgb(0,0,255)" fill="none" d="M101 362L105 363L106 366L106 369L109 373L110 376L112 381L114 383L116 388L119 391L120 395L123 398L124 400L125 402L126 404L127 404L129 407L129 408L131 410L134 413L138 418"/><path stroke="rgb(0,0,255)" fill="none" d="M24 351L17 352L15 352L13 352L11 353L8 353L6 354L4 355L3 356L2 356L1 357L0 357L-1 358L-2 358L-2 359"/></svg>